General
Complete name                    : 16.Blocks.2006.avi
Format                           : AVI
File size                        : 703 MiB
Duration                         : 1h 37mn
Overall bit rate                 : 1 008 Kbps

Video
ID                               : 0
Format                           : MPEG-4 Visual
Codec ID/Hint                    : XviD
Duration                         : 1h 37mn
Bit rate                         : 883 Kbps
Width                            : 720 pixels
Height                           : 424 pixels
Display aspect ratio             : 2.40:1
Stream size                      : 615 MiB (88%)
Writing library                  : XviD 1.1.2 (UTC 2006-11-01)

Audio

Format                           : MPEG Audio
Codec ID/Hint                    : MP3
Duration                         : 1h 37mn
Bit rate                         : 112 Kbps
Channel(s)                       : 2 channels
Sampling rate                    : 48.0 KHz
Stream size                      : 78.1 MiB (11%)


 
http://www.imdb.com/title/tt0450232/